<svg width="30" height="20" viewBox="0 0 30 20" fill="none" xmlns="http://www.w3.org/2000/svg">
<path d="M26.2844 2.53334C24.2202 0.933311 21.7432 0.133343 19.1285 0L18.7156 0.400029C21.055 0.93331 23.1193 1.99996 25.0459 3.46665C22.7064 2.26665 20.0917 1.46668 17.3394 1.2C16.5138 1.06665 15.8257 1.06665 15 1.06665C14.1743 1.06665 13.4862 1.06665 12.6606 1.2C9.90825 1.46668 7.29356 2.26665 4.95412 3.46665C6.88069 1.99996 8.94497 0.93331 11.2844 0.400029L10.8715 0C8.25684 0.133343 5.77978 0.933311 3.71559 2.53334C1.37615 6.80004 0.137616 11.6 0 16.5333C2.06419 18.6667 4.95412 20 7.98169 20C7.98169 20 8.94497 18.9333 9.633 17.9999C7.84406 17.6 6.19266 16.6666 5.09175 15.2C6.05503 15.7333 7.01831 16.2667 7.98169 16.6666C9.22022 17.2 10.4588 17.4667 11.6973 17.7334C12.7982 17.8666 13.8991 17.9999 15 17.9999C16.1009 17.9999 17.2018 17.8666 18.3027 17.7334C19.5413 17.4667 20.7798 17.2 22.0183 16.6666C22.9817 16.2667 23.945 15.7333 24.9083 15.2C23.8073 16.6666 22.1559 17.6 20.367 17.9999C21.055 18.9333 22.0183 20 22.0183 20C25.0459 20 27.9358 18.6667 30 16.5333C29.8624 11.6 28.6238 6.80004 26.2844 2.53334ZM10.4587 14.1333C9.08259 14.1333 7.84406 12.9333 7.84406 11.4667C7.84406 10 9.08259 8.8 10.4587 8.8C11.8349 8.8 13.0734 10 13.0734 11.4667C13.0734 12.9333 11.8349 14.1333 10.4587 14.1333ZM19.5413 14.1333C18.1651 14.1333 16.9266 12.9333 16.9266 11.4667C16.9266 10 18.1651 8.8 19.5413 8.8C20.9174 8.8 22.1559 10 22.1559 11.4667C22.1559 12.9333 20.9174 14.1333 19.5413 14.1333Z" fill="white"/>
</svg>
