<svg width="26" height="26" viewBox="0 0 26 26" fill="none" xmlns="http://www.w3.org/2000/svg">
<path fill-rule="evenodd" clip-rule="evenodd" d="M12.9618 0.799988C6.08104 0.799988 0.5 6.38103 0.5 13.2618C0.5 18.7663 4.09327 23.43 8.98624 25.1119C9.59786 25.1884 9.82722 24.8061 9.82722 24.5003C9.82722 24.1945 9.82722 23.43 9.82722 22.3596C6.38685 23.1241 5.62232 20.6777 5.62232 20.6777C5.08716 19.2251 4.24618 18.8428 4.24618 18.8428C3.09939 18.0783 4.32263 18.0783 4.32263 18.0783C5.54587 18.1547 6.23394 19.378 6.23394 19.378C7.38073 21.2893 9.13914 20.7541 9.82722 20.4483C9.90367 19.6073 10.2859 19.0722 10.5917 18.7663C7.83945 18.4605 4.93425 17.3902 4.93425 12.5737C4.93425 11.1975 5.39297 10.1272 6.23394 9.20977C6.15749 8.98042 5.69878 7.68072 6.38685 5.99876C6.38685 5.99876 7.45719 5.69295 9.82722 7.29846C10.8211 6.99265 11.8914 6.9162 12.9618 6.9162C14.0321 6.9162 15.1024 7.0691 16.0963 7.29846C18.4664 5.69295 19.5367 5.99876 19.5367 5.99876C20.2248 7.68072 19.7661 8.98042 19.6896 9.28623C20.4541 10.1272 20.9893 11.274 20.9893 12.6501C20.9893 17.4667 18.0841 18.4605 15.3318 18.7663C15.7905 19.1486 16.1728 19.9131 16.1728 21.0599C16.1728 22.7419 16.1728 24.0416 16.1728 24.5003C16.1728 24.8061 16.4021 25.1884 17.0138 25.1119C21.9832 23.43 25.5 18.7663 25.5 13.2618C25.4235 6.38103 19.8425 0.799988 12.9618 0.799988Z" fill="white"/>
</svg>
