<svg width="310" height="144" viewBox="0 0 310 144" fill="none" xmlns="http://www.w3.org/2000/svg">
<g clip-path="url(#clip0_455_573)">
<path d="M247.3 5C252.4 5 258.1 11.4 262.5 22.2C267.5 34.8 270.3 51.6 270.3 69.5C270.3 87.4 267.5 104.2 262.5 116.8C258.1 127.6 252.4 134 247.3 134C242.2 134 236.5 127.6 232.1 116.8C227.1 104.2 224.3 87.4 224.3 69.5C224.3 51.6 227.1 34.8 232.1 22.2C236.5 11.4 242.2 5 247.3 5ZM247.3 0C231.8 0 219.3 31.1 219.3 69.5C219.3 107.9 231.8 139 247.3 139C262.8 139 275.3 107.9 275.3 69.5C275.3 31.1 262.8 0 247.3 0Z" fill="#F0F0F0"/>
<path d="M288.7 32.1C296.1 32.1 301.3 33.9 303.2 37.2C305.8 41.7 303 49.8 295.9 58.9C287.6 69.6 274.4 80.4 258.9 89.3C240 100.2 220.2 106.8 206 106.8C198.6 106.8 193.4 105 191.5 101.7C188.9 97.3 191.6 89.2 198.8 80C207.1 69.3 220.3 58.5 235.8 49.6C254.7 38.6 274.5 32.1 288.7 32.1ZM288.7 27.1C274.2 27.1 253.8 33.4 233.3 45.2C200.1 64.4 179.4 90.8 187.1 104.2C190.1 109.4 196.8 111.8 205.9 111.8C220.4 111.8 240.8 105.5 261.3 93.7C294.5 74.5 315.2 48.1 307.5 34.7C304.5 29.6 297.8 27.1 288.7 27.1Z" fill="#F0F0F0"/>
<path d="M205.9 32.1C220.1 32.1 239.9 38.6 258.8 49.6C274.3 58.6 287.5 69.4 295.8 80C303 89.2 305.7 97.3 303.1 101.7C301.2 105 296.1 106.8 288.6 106.8C274.4 106.8 254.6 100.3 235.7 89.3C220.2 80.3 207 69.5 198.7 58.9C191.5 49.7 188.8 41.6 191.4 37.2C193.4 33.9 198.5 32.1 205.9 32.1ZM205.9 27.1C196.8 27.1 190.1 29.6 187.1 34.7C179.4 48.1 200 74.5 233.3 93.7C253.7 105.5 274.2 111.8 288.7 111.8C297.8 111.8 304.5 109.3 307.5 104.2C315.2 90.8 294.6 64.4 261.3 45.2C240.9 33.4 220.4 27.1 205.9 27.1Z" fill="#F0F0F0"/>
<path d="M247.3 83.5C255.032 83.5 261.3 77.232 261.3 69.5C261.3 61.768 255.032 55.5 247.3 55.5C239.568 55.5 233.3 61.768 233.3 69.5C233.3 77.232 239.568 83.5 247.3 83.5Z" fill="#F0F0F0"/>
<path d="M262.2 23.4C266.729 23.4 270.4 19.7287 270.4 15.2C270.4 10.6713 266.729 7 262.2 7C257.671 7 254 10.6713 254 15.2C254 19.7287 257.671 23.4 262.2 23.4Z" fill="#F0F0F0"/>
<path d="M191.5 93.3C196.029 93.3 199.7 89.6288 199.7 85.1C199.7 80.5713 196.029 76.9 191.5 76.9C186.971 76.9 183.3 80.5713 183.3 85.1C183.3 89.6288 186.971 93.3 191.5 93.3Z" fill="#F0F0F0"/>
<path d="M288.1 117C292.629 117 296.3 113.329 296.3 108.8C296.3 104.271 292.629 100.6 288.1 100.6C283.571 100.6 279.9 104.271 279.9 108.8C279.9 113.329 283.571 117 288.1 117Z" fill="#F0F0F0"/>
</g>
<g clip-path="url(#clip1_455_573)">
<path d="M16.1 0C24.1 0 30.4 2.3 34.8 6.8C39.3 11.4 41.5 17.1 41.5 24.2C41.5 31.2 39.2 36.9 34.7 41.5C30.2 46.1 24 48.4 16.1 48.4H0.0999756V0H16.1ZM17.8 39.2C22.1 39.2 25.6 37.8 28.3 34.9C31 32 32.4 28.5 32.4 24.2C32.4 20 31 16.4 28.3 13.5C25.6 10.6 22.1 9.2 17.8 9.2H9.29998V39.2H17.8Z" fill="#F0F0F0"/>
<path d="M60.3 48.4H51.1V0H60.3V48.4Z" fill="#F0F0F0"/>
<path d="M87.8 48.4L68.2 0H78.6L91.3 32.3L103.9 0H114.3L94.7 48.4H87.8Z" fill="#F0F0F0"/>
<path d="M152.1 9.2H131.4V19.6H148.7V28.8H131.4V39.2H152.1V48.4H122.1V0H152.1V9.2Z" fill="#F0F0F0"/>
<path d="M9.29998 106.4H0.0999756V58H9.29998V106.4V106.4Z" fill="#F0F0F0"/>
<path d="M50.8 58H60V106.4H50.8L26.7 73V106.4H17.5V58H26.6L50.9 91.5V58H50.8Z" fill="#F0F0F0"/>
<path d="M68.8 58H103.4V67.2H90.7V106.4H81.5V67.2H68.8V58Z" fill="#F0F0F0"/>
<path d="M114.8 64.3C119.7 59.4 125.7 56.9 132.7 56.9C139.7 56.9 145.7 59.4 150.6 64.3C155.5 69.2 158 75.2 158 82.2C158 89.2 155.5 95.2 150.6 100.1C145.7 105 139.7 107.5 132.7 107.5C125.7 107.5 119.7 105 114.8 100.1C109.9 95.2 107.4 89.2 107.4 82.2C107.4 75.2 109.9 69.2 114.8 64.3ZM121.4 93.6C124.5 96.7 128.3 98.3 132.8 98.3C137.3 98.3 141.1 96.7 144.2 93.6C147.3 90.5 148.9 86.7 148.9 82.2C148.9 77.7 147.3 73.9 144.2 70.8C141.1 67.7 137.3 66.1 132.8 66.1C128.3 66.1 124.5 67.7 121.4 70.8C118.3 73.9 116.7 77.7 116.7 82.2C116.7 86.7 118.2 90.5 121.4 93.6Z" fill="#F0F0F0"/>
<path d="M8.99998 131.6C10.5 131.6 11.7 131.1 12.7 130.2L14.4 133.8C13.1 135.1 11.3 135.7 8.89997 135.7C6.19997 135.7 3.99998 134.9 2.49998 133.3C0.899976 131.7 0.0999756 129.7 0.0999756 127.3C0.0999756 124.9 0.899976 122.9 2.49998 121.3C4.09998 119.7 6.19997 118.9 8.89997 118.9C11.2 118.9 13 119.5 14.4 120.8L12.7 124.5C11.7 123.5 10.5 123 8.99998 123C7.49998 123 6.29998 123.4 5.49998 124.2C4.59998 125 4.19998 126.1 4.19998 127.3C4.19998 128.5 4.59998 129.6 5.49998 130.4C6.29998 131.2 7.49998 131.6 8.99998 131.6Z" fill="#F0F0F0"/>
<path d="M18.3 121.3C19.9 119.7 21.9 118.8 24.3 118.8C26.6 118.8 28.6 119.6 30.3 121.3C31.9 122.9 32.8 124.9 32.8 127.3C32.8 129.6 32 131.6 30.3 133.3C28.7 134.9 26.7 135.8 24.3 135.8C22 135.8 20 135 18.3 133.3C16.7 131.7 15.8 129.7 15.8 127.3C15.9 124.9 16.7 122.9 18.3 121.3ZM21.2 130.4C22.1 131.3 23.1 131.7 24.3 131.7C25.5 131.7 26.5 131.3 27.4 130.4C28.3 129.5 28.7 128.5 28.7 127.3C28.7 126.1 28.3 125.1 27.4 124.2C26.5 123.3 25.5 122.9 24.3 122.9C23.1 122.9 22.1 123.3 21.2 124.2C20.3 125.1 19.9 126.1 19.9 127.3C20 128.5 20.4 129.5 21.2 130.4Z" fill="#F0F0F0"/>
<path d="M52.7 118.8C54.6 118.8 56.1 119.4 57.2 120.6C58.3 121.8 58.9 123.6 58.9 125.9V135.1H54.7999V126.4C54.7999 125.1 54.6 124.2 54.2 123.7C53.8 123.1 53.2 122.9 52.2 122.9C50.2 122.9 49.0999 124.3 49.0999 127V135.2H45V126.5C45 125.3 44.8 124.4 44.4 123.8C44 123.2 43.3 122.9 42.4 122.9C40.4 122.9 39.2999 124.3 39.2999 127V135.2H35.2V119.3H39.2999V120.8C40.3999 119.4 41.8 118.8 43.4 118.8C45.4 118.8 46.8999 119.5 47.7999 120.9C49.1999 119.6 50.8 118.8 52.7 118.8Z" fill="#F0F0F0"/>
<path d="M79.6 118.8C81.5 118.8 83 119.4 84.1 120.6C85.2 121.8 85.8 123.6 85.8 125.9V135.1H81.7V126.4C81.7 125.1 81.5 124.2 81.1 123.7C80.7 123.1 80.1 122.9 79.1 122.9C77.1 122.9 76 124.3 76 127V135.2H71.9V126.5C71.9 125.3 71.7 124.4 71.3 123.8C70.9 123.2 70.2 122.9 69.3 122.9C67.3 122.9 66.2 124.3 66.2 127V135.2H62.1V119.3H66.2V120.8C67.3 119.4 68.7 118.8 70.3 118.8C72.3 118.8 73.8 119.5 74.7 120.9C76.1 119.6 77.7 118.8 79.6 118.8Z" fill="#F0F0F0"/>
<path d="M94.5 135.7C92.6 135.7 91.2 135.1 90.1 133.9C89 132.7 88.5 130.9 88.5 128.6V119.4H92.6V128.1C92.6 129.3 92.9 130.2 93.4 130.8C93.9 131.4 94.7 131.7 95.7 131.7C96.7 131.7 97.6 131.4 98.3 130.7C99 130 99.3 129 99.3 127.6V119.4H103.4V135.3H99.3V133.8C98.2 135.1 96.6 135.7 94.5 135.7Z" fill="#F0F0F0"/>
<path d="M115.5 118.8C117.4 118.8 118.8 119.4 119.9 120.6C121 121.8 121.5 123.6 121.5 125.9V135.1H117.4V126.4C117.4 125.2 117.2 124.3 116.7 123.7C116.2 123.1 115.4 122.8 114.4 122.8C113.4 122.8 112.5 123.1 111.8 123.8C111.1 124.5 110.8 125.5 110.8 126.9V135.1H106.7V119.2H110.8V120.7C111.9 119.5 113.5 118.8 115.5 118.8Z" fill="#F0F0F0"/>
<path d="M128.2 116.5C127.7 117 127 117.3 126.2 117.3C125.4 117.3 124.7 117 124.2 116.5C123.7 116 123.4 115.3 123.4 114.5C123.4 113.7 123.7 113 124.2 112.5C124.7 112 125.4 111.7 126.2 111.7C127 111.7 127.7 112 128.2 112.5C128.7 113 129 113.7 129 114.5C129 115.3 128.8 115.9 128.2 116.5ZM124.2 135.2V119.3H128.3V135.2H124.2Z" fill="#F0F0F0"/>
<path d="M132.7 130.7V122.9H130.7V119.3H132.7V113.7H136.8V119.3H139.9V122.9H136.8V129.6C136.8 130.7 137.1 131.4 137.6 131.7C138.1 132 138.9 132 139.9 131.6V135.2C139 135.5 138 135.7 136.9 135.7C135.5 135.7 134.4 135.2 133.8 134.3C133.1 133.5 132.7 132.2 132.7 130.7Z" fill="#F0F0F0"/>
<path d="M153.7 119.4H158.3L148.1 143.5H143.5L147.5 134L141.4 119.4H146L149.8 128.6L153.7 119.4Z" fill="#F0F0F0"/>
</g>
<defs>
<clipPath id="clip0_455_573">
<rect width="125.8" height="139" fill="white" transform="translate(183.3)"/>
</clipPath>
<clipPath id="clip1_455_573">
<rect width="158.3" height="143.4" fill="white"/>
</clipPath>
</defs>
</svg>
